<svg xmlns="http://www.w3.org/2000/svg" viewBox="0 0 1268.9 281.92"><title>LDC</title><path d="M277.75,48.68a75.69,75.69,0,0,1,17.69-25.55,82.4,82.4,0,0,1,27.29-17A95.88,95.88,0,0,1,357.54,0H393V32.15h-35.5a53.41,53.41,0,0,0-19.89,3.58,44.18,44.18,0,0,0-15.38,10.06,46.11,46.11,0,0,0-9.94,15.5A52.76,52.76,0,0,0,308.74,81v.46a51.61,51.61,0,0,0,3.59,19.66,46.58,46.58,0,0,0,9.94,15.26,42.84,42.84,0,0,0,15.38,10,55.05,55.05,0,0,0,19.89,3.46H393v32.15h-35.5a94.24,94.24,0,0,1-34.81-6.24,84,84,0,0,1-27.29-17.12,75.29,75.29,0,0,1-17.69-25.67A81.25,81.25,0,0,1,271.51,81v-.47A80.53,80.53,0,0,1,277.75,48.68Z" fill="#ffc852"/><path d="M3.05,0H38.66V129.74h80.72v32.15H3.05Z" fill="#f05f3b"/><path d="M250.26,48.68a75.69,75.69,0,0,0-17.69-25.55,82.2,82.2,0,0,0-27.29-17A95.79,95.79,0,0,0,170.48,0H135V32.15h35.5a53.36,53.36,0,0,1,19.88,3.58,44.09,44.09,0,0,1,15.38,10.06,46.14,46.14,0,0,1,9.95,15.5,52.74,52.74,0,0,1,3.58,19.65v.47a51.61,51.61,0,0,1-3.58,19.66,46.71,46.71,0,0,1-9.95,15.26,42.6,42.6,0,0,1-15.38,9.94,54.79,54.79,0,0,1-19.88,3.47H135v32.15h35.5a94.15,94.15,0,0,0,34.8-6.24,83.79,83.79,0,0,0,27.29-17.12,75.29,75.29,0,0,0,17.69-25.67,81.13,81.13,0,0,0,6.25-31.92v-.46A80.33,80.33,0,0,0,250.26,48.68Z" fill="#419f9e"/><path d="M0,208.39H8.16v64.75H48.85v7.54H0Z" fill="#419f9e"/><path d="M85.39,281.92c-16,0-27.67-12.6-27.67-27.78a27.83,27.83,0,1,1,27.67,27.78Zm0-48.75c-11.56,0-19.51,9.19-19.51,20.76s8.46,20.86,19.72,20.86c11.57,0,19.62-9.19,19.62-20.65C105.22,242.47,96.65,233.17,85.39,233.17Z" fill="#419f9e"/><path d="M165.11,227.29H173v53.39h-7.85v-9.3c-3.62,5.79-9.09,10.43-18.28,10.43-12.91,0-20.45-8.67-20.45-21.37V227.29h8v31.19c0,9.91,5.37,16.11,14.77,16.11,9.09,0,16-6.72,16-16.73Z" fill="#419f9e"/><path d="M190.5,215.62v-8.78h9.09v8.78Zm.52,65.06V227.29H199v53.39Z" fill="#419f9e"/><path d="M234.6,281.71a36.69,36.69,0,0,1-22.1-7.85l4-5.68c5.79,4.34,12.19,6.82,18.49,6.82s11.05-3.31,11.05-8.47v-.21c0-5.37-6.3-7.43-13.32-9.39-8.37-2.38-17.66-5.27-17.66-15.08v-.21c0-9.19,7.64-15.28,18.17-15.28a36.52,36.52,0,0,1,19.21,5.88l-3.61,6c-5-3.2-10.64-5.16-15.8-5.16-6.3,0-10.33,3.3-10.33,7.74V241c0,5.06,6.61,7,13.74,9.19,8.26,2.48,17.14,5.68,17.14,15.29v.2C253.6,275.83,245.23,281.71,234.6,281.71Z" fill="#419f9e"/><path d="M305.33,227.29h8.57l-23.23,53.8h-7l-23.13-53.8h8.78l18,44.3Z" fill="#419f9e"/><path d="M326.08,215.62v-8.78h9.09v8.78Zm.51,65.06V227.29h8v53.39Z" fill="#419f9e"/><path d="M353.23,280.68V205.29h7.95v75.39Z" fill="#419f9e"/><path d="M379.87,280.68V205.29h7.95v75.39Z" fill="#419f9e"/><path d="M429.33,275c7.33,0,12.5-3,16.83-7.54l5,4.44c-5.37,6-11.88,10-22,10-14.66,0-26.64-11.26-26.64-27.89,0-15.49,10.84-27.88,25.61-27.88,15.8,0,24.89,12.6,24.89,28.3a22.38,22.38,0,0,1-.1,2.48H410.54C411.67,268.49,419.93,275,429.33,275Zm15.6-24c-.83-9.71-6.41-18.18-17-18.18-9.3,0-16.32,7.75-17.35,18.18Z" fill="#419f9e"/><path d="M523.29,280.68H498.2V208.39h25.09c22.72,0,38.42,15.59,38.42,36S546,280.68,523.29,280.68Zm0-64.75H506.36v57.21h16.93c18.28,0,30-12.39,30-28.5S541.57,215.93,523.29,215.93Z" fill="#419f9e"/><path d="M580.18,237.51l-2.37-6.5a44,44,0,0,1,19.41-4.45c14.56,0,22.72,7.44,22.72,21.48v32.64H612.3v-8.06c-3.72,4.86-9.91,9.19-19.31,9.19-9.92,0-19.93-5.57-19.93-16.72,0-11.37,9.29-17.35,22.82-17.35A56.47,56.47,0,0,1,612.3,250v-1.86c0-9.61-5.89-14.56-15.9-14.56A37.24,37.24,0,0,0,580.18,237.51Zm.93,27.26c0,6.82,6.2,10.74,13.43,10.74,9.81,0,17.86-6,17.86-14.45v-5.17a55.87,55.87,0,0,0-15.69-2.27C586.69,253.62,581.11,258,581.11,264.77Z" fill="#419f9e"/><path d="M646.58,265.5c0,6.5,3.61,8.88,9,8.88a16.76,16.76,0,0,0,7.75-1.86v6.82a20.07,20.07,0,0,1-9.61,2.27c-8.57,0-15.07-4.24-15.07-15.08V234.31h-7.44v-7h7.44V211.18h8v16.11h16.93v7H646.58Z" fill="#419f9e"/><path d="M680.14,237.51l-2.38-6.5a44,44,0,0,1,19.41-4.45c14.57,0,22.72,7.44,22.72,21.48v32.64h-7.64v-8.06c-3.72,4.86-9.91,9.19-19.31,9.19-9.91,0-19.93-5.57-19.93-16.72,0-11.37,9.29-17.35,22.82-17.35A56.42,56.42,0,0,1,712.25,250v-1.86c0-9.61-5.88-14.56-15.9-14.56A37.16,37.16,0,0,0,680.14,237.51Zm.92,27.26c0,6.82,6.2,10.74,13.43,10.74,9.81,0,17.87-6,17.87-14.45v-5.17a56,56,0,0,0-15.7-2.27C686.64,253.62,681.06,258,681.06,264.77Z" fill="#419f9e"/><path d="M801.15,281.92c-20.86,0-36.25-16.42-36.25-37.28,0-20.66,15.29-37.49,36.56-37.49,13.12,0,21,4.64,28.2,11.46l-5.58,6c-6.09-5.78-12.91-9.91-22.72-9.91-16,0-28,12.91-28,29.74s12.09,29.95,28,29.95c9.91,0,16.42-3.82,23.34-10.43l5.37,5.27C822.53,276.86,814.27,281.92,801.15,281.92Z" fill="#419f9e"/><path d="M865.79,281.92a27.38,27.38,0,0,1-27.68-27.78,27.84,27.84,0,1,1,27.68,27.78Zm0-48.75c-11.57,0-19.52,9.19-19.52,20.76s8.47,20.86,19.73,20.86c11.56,0,19.62-9.19,19.62-20.65C885.62,242.47,877.05,233.17,865.79,233.17Z" fill="#419f9e"/><path d="M968.74,226.15c12.29,0,19.83,8.26,19.83,21.48v33.05h-8V249.49c0-10.33-5.17-16.11-13.84-16.11-8.06,0-14.77,6-14.77,16.52v30.78h-7.85v-31.4c0-10-5.27-15.9-13.73-15.9s-14.87,7-14.87,16.83v30.47h-8V227.29h8v9c3.51-5.26,8.26-10.12,17.24-10.12A18.15,18.15,0,0,1,950,236.79C953.77,230.9,959.45,226.15,968.74,226.15Z" fill="#419f9e"/><path d="M1066.42,226.15c12.29,0,19.83,8.26,19.83,21.48v33.05h-8V249.49c0-10.33-5.17-16.11-13.84-16.11-8.06,0-14.77,6-14.77,16.52v30.78h-7.85v-31.4c0-10-5.27-15.9-13.73-15.9s-14.87,7-14.87,16.83v30.47h-8V227.29h8v9c3.51-5.26,8.26-10.12,17.24-10.12a18.13,18.13,0,0,1,17.14,10.64C1051.44,230.9,1057.12,226.15,1066.42,226.15Z" fill="#419f9e"/><path d="M1127.33,281.92c-16,0-27.67-12.6-27.67-27.78a27.83,27.83,0,1,1,27.67,27.78Zm0-48.75c-11.56,0-19.52,9.19-19.52,20.76s8.47,20.86,19.73,20.86c11.57,0,19.62-9.19,19.62-20.65C1147.16,242.47,1138.59,233.17,1127.33,233.17Z" fill="#419f9e"/><path d="M1177.1,280.68h-7.95V227.29h7.95v9.29c3.51-5.78,9.09-10.43,18.28-10.43,12.91,0,20.45,8.68,20.45,21.38v33.15h-7.95V249.49c0-9.91-5.37-16.11-14.77-16.11-9.19,0-16,6.71-16,16.73Z" fill="#419f9e"/><path d="M1249.9,281.71a36.69,36.69,0,0,1-22.1-7.85l4-5.68c5.79,4.34,12.19,6.82,18.49,6.82s11-3.31,11-8.47v-.21c0-5.37-6.3-7.43-13.32-9.39-8.37-2.38-17.66-5.27-17.66-15.08v-.21c0-9.19,7.64-15.28,18.17-15.28a36.52,36.52,0,0,1,19.21,5.88l-3.61,6c-5-3.2-10.64-5.16-15.8-5.16-6.3,0-10.33,3.3-10.33,7.74V241c0,5.06,6.61,7,13.74,9.19,8.26,2.48,17.14,5.68,17.14,15.29v.2C1268.9,275.83,1260.53,281.71,1249.9,281.71Z" fill="#419f9e"/></svg>